<svg xmlns="http://www.w3.org/2000/svg" viewBox="0 0 1208.54 269.13"><defs><style>.cls-1{fill:#14a9e1;}</style></defs><title>logo-text-</title><g id="Layer_2" data-name="Layer 2"><g id="Layer_2-2" data-name="Layer 2"><path class="cls-1" d="M323.34,236.9q-17,0-27.67-11.17T285,195.85v-2.63A50.19,50.19,0,0,1,289.75,171a37.1,37.1,0,0,1,13.3-15.31,33.43,33.43,0,0,1,18.51-5.52q16.32,0,25.36,10.74t9,30.77v5.95H299.3q.31,12.36,7.23,20a22.69,22.69,0,0,0,17.58,7.61A25,25,0,0,0,337,222.13a32.14,32.14,0,0,0,9.19-8.19l8.74,6.8Q344.37,236.9,323.34,236.9Zm-1.78-75a19.08,19.08,0,0,0-14.53,6.3q-5.88,6.3-7.27,17.66h41.9V184.8q-.62-10.91-5.87-16.89T321.56,161.92Z"/><path class="cls-1" d="M386,151.71l.46,10.52a30.48,30.48,0,0,1,25.05-12.06q26.5,0,26.74,29.91v55.27H424V180q-.08-9-4.13-13.37t-12.64-4.33A20.64,20.64,0,0,0,395,166a25.22,25.22,0,0,0-8.2,9.74v59.6H372.5V151.71Z"/><path d="M479.25,131.46v20.25h15.62v11.06H479.25V214.7q0,5,2.09,7.55t7.11,2.51a34.46,34.46,0,0,0,6.8-.93v11.53a41.86,41.86,0,0,1-11,1.54q-9.58,0-14.46-5.8T465,214.63V162.77H449.72V151.71H465V131.46Z"/><path d="M546.27,236.9q-17,0-27.67-11.17t-10.67-29.88v-2.63A50.32,50.32,0,0,1,512.68,171,37.17,37.17,0,0,1,526,155.69a33.46,33.46,0,0,1,18.51-5.52q16.32,0,25.36,10.74t9,30.77v5.95H522.23q.32,12.36,7.23,20A22.69,22.69,0,0,0,547,225.22a25,25,0,0,0,12.84-3.09,32.14,32.14,0,0,0,9.19-8.19l8.74,6.8Q567.29,236.9,546.27,236.9Zm-1.78-75a19.08,19.08,0,0,0-14.53,6.3q-5.88,6.3-7.26,17.66h41.89V184.8q-.62-10.91-5.87-16.89T544.49,161.92Z"/><path d="M611,235.35h-14.3V116.62H611Z"/><path d="M649.39,235.35h-14.3V116.62h14.3Z"/><path d="M672.35,129.53a8.53,8.53,0,0,1,2.12-5.88q2.13-2.39,6.3-2.39a8.13,8.13,0,0,1,6.34,2.39,8.47,8.47,0,0,1,2.16,5.88,8.19,8.19,0,0,1-2.16,5.8c-1.44,1.54-3.56,2.31-6.34,2.31s-4.88-.77-6.3-2.31A8.25,8.25,0,0,1,672.35,129.53Zm15.46,105.82h-14.3V151.71h14.3Z"/><path d="M707.28,192.84q0-19.56,9.05-31.12t24-11.55q15.32,0,23.89,10.82l.69-9.28h13.07v81.63q0,16.23-9.63,25.59t-25.85,9.35a43.18,43.18,0,0,1-17.71-3.86,30.5,30.5,0,0,1-13.21-10.59l7.42-8.59q9.19,11.37,22.49,11.37,10.44,0,16.27-5.88t5.84-16.54V227q-8.58,9.9-23.42,9.9-14.68,0-23.77-11.83T707.28,192.84Zm14.38,1.62q0,14.14,5.8,22.22t16.23,8.08q13.53,0,19.87-12.29V174.28q-6.57-12-19.71-12-10.44,0-16.31,8.12T721.66,194.46Z"/><path d="M834.21,236.9q-17,0-27.67-11.17t-10.67-29.88v-2.63A50.19,50.19,0,0,1,800.62,171a37.1,37.1,0,0,1,13.3-15.31,33.43,33.43,0,0,1,18.51-5.52q16.3,0,25.36,10.74t9,30.77v5.95H810.17q.32,12.36,7.23,20A22.69,22.69,0,0,0,835,225.22a24.9,24.9,0,0,0,12.83-3.09,32,32,0,0,0,9.2-8.19l8.74,6.8Q855.24,236.9,834.21,236.9Zm-1.78-75a19.08,19.08,0,0,0-14.53,6.3q-5.88,6.3-7.27,17.66h41.9V184.8q-.62-10.91-5.87-16.89T832.43,161.92Z"/><path d="M896.9,151.71l.46,10.52a30.48,30.48,0,0,1,25-12.06q26.51,0,26.74,29.91v55.27h-14.3V180q-.08-9-4.13-13.37t-12.64-4.33A20.64,20.64,0,0,0,905.87,166a25.22,25.22,0,0,0-8.2,9.74v59.6h-14.3V151.71Z"/><path d="M990.12,131.46v20.25h15.62v11.06H990.12V214.7q0,5,2.09,7.55t7.11,2.51a34.46,34.46,0,0,0,6.8-.93v11.53a41.86,41.86,0,0,1-11,1.54q-9.58,0-14.46-5.8t-4.87-16.47V162.77H960.59V151.71h15.23V131.46Z"/><path d="M1038,235.35h-14.3V116.62H1038Z"/><path d="M1088.22,214.4l19.47-62.69H1123l-33.63,96.55q-7.8,20.87-24.81,20.87l-2.7-.23-5.34-1V256.3l3.87.31q7.26,0,11.32-2.94t6.69-10.74l3.17-8.51-29.84-82.71h15.61Z"/><path class="cls-1" d="M1128.17,65.8a44,44,0,0,1,5.29-21.24,39.6,39.6,0,0,1,14.67-15.43,39.12,39.12,0,0,1,40.47,0,39.67,39.67,0,0,1,14.64,15.43,45.29,45.29,0,0,1,.2,42.14A40.28,40.28,0,0,1,1189,102.36a38.83,38.83,0,0,1-41.12.06,40.43,40.43,0,0,1-14.53-15.6A44.23,44.23,0,0,1,1128.17,65.8Zm6.51,0a37,37,0,0,0,4.53,18,33.72,33.72,0,0,0,12.32,13,32.45,32.45,0,0,0,33.79-.09,33.68,33.68,0,0,0,12.26-13,38.21,38.21,0,0,0,0-35.79A33.46,33.46,0,0,0,1185.32,35a32.8,32.8,0,0,0-33.82,0,33.34,33.34,0,0,0-12.32,12.93A36.8,36.8,0,0,0,1134.68,65.77Zm25.38,4.28V89.19h-8V41.11h15.63q8.67,0,13.45,3.71t4.79,10.79q0,7-7.25,10.64,6.91,2.84,7,11.56v3.45q0,4.88,1,7v.9h-8.21q-.79-2-.8-7.27a57.37,57.37,0,0,0-.17-6.21q-.9-5.43-7.42-5.66Zm0-7.25h8.83a11.28,11.28,0,0,0,6.57-2,5.85,5.85,0,0,0,2.49-4.91q0-4.12-2.2-5.84c-1.48-1.15-4.1-1.72-7.88-1.72h-7.81Z"/><g id="Layer_2-3" data-name="Layer 2"><g id="Layer_1-2" data-name="Layer 1-2"><path class="cls-1" d="M203.91,242H38.09A38.15,38.15,0,0,1,0,203.91V38.1A38.14,38.14,0,0,1,38.1,0H203.91A38.15,38.15,0,0,1,242,38.09v75.58a12,12,0,0,1-11.95,12h-26.6A12.15,12.15,0,0,1,191.6,113.5V94.87a11.63,11.63,0,0,0-1.55-5.06c-1-1.7-3.1-3.92-9.1-3.92s-7.91,2.31-9,4.27A12.8,12.8,0,0,0,170.61,95v21.69a8.9,8.9,0,0,1-17.8,0V95.05c0-10.84,7.5-26.95,28.17-26.95,20.88,0,28.45,16,28.45,26.66v12.9l14.8.12V38.09a20.33,20.33,0,0,0-20.3-20.3H38.1A20.33,20.33,0,0,0,17.8,38.1V203.91a20.33,20.33,0,0,0,20.3,20.3H203.91a20.34,20.34,0,0,0,20.3-20.3V161.74h-62c-13.47,20.88-36.67,32.35-65.58,32.35-33.24,0-66.89-25.49-66.89-74.19,0-20.66,5.6-37.87,16.18-49.77C56.85,57.86,72.86,51.35,92.21,51.35c21.35,0,34.25,11,41.31,20.16,9,11.73,12.19,25.41,12.19,34.29,0,14.41-7.69,19.51-14.22,19.51H47.74c1.92,25.49,17.4,51,48.89,51,29.81,0,44.4-13.9,51.47-25.55,2.72-4.52,7.57-6.83,14.41-6.83H228.9A13.12,13.12,0,0,1,242,157.05v46.89A38.15,38.15,0,0,1,203.91,242ZM48.4,107.57h79.46c.38-4.35-1-13.52-6.36-22.14C116.84,78,108,69.21,92.2,69.21c-14.33,0-25.43,4.27-33,12.81C53.62,88.24,50,97,48.4,107.57Z"/></g></g></g></g></svg>