<svg xmlns="http://www.w3.org/2000/svg" viewBox="0 0 923.54 245.64"><defs><style>.cls-1{fill:#14a9e1;}</style></defs><title>text-</title><g id="Layer_2" data-name="Layer 2"><g id="Layer_2-2" data-name="Layer 2"><path class="cls-1" d="M38.34,213.41q-17,0-27.67-11.17T0,172.36v-2.63a50.19,50.19,0,0,1,4.75-22.22,37.1,37.1,0,0,1,13.3-15.31,33.43,33.43,0,0,1,18.51-5.52q16.32,0,25.36,10.74t9,30.77v5.95H14.3q.31,12.36,7.23,20a22.69,22.69,0,0,0,17.58,7.61A25,25,0,0,0,52,198.64a32.14,32.14,0,0,0,9.19-8.19l8.74,6.8Q59.36,213.41,38.34,213.41Zm-1.78-75A19.08,19.08,0,0,0,22,144.73q-5.88,6.3-7.27,17.66h41.9v-1.08Q56,150.4,50.79,144.42T36.56,138.43Z"/><path class="cls-1" d="M101,128.22l.46,10.51a30.5,30.5,0,0,1,25.05-12q26.51,0,26.74,29.91v55.27H139V156.51q-.07-9-4.13-13.37t-12.64-4.33A20.64,20.64,0,0,0,110,142.52a25.22,25.22,0,0,0-8.2,9.74v59.6H87.5V128.22Z"/><path d="M194.25,108v20.25h15.62v11.06H194.25v51.93c0,3.35.7,5.87,2.09,7.54s3.76,2.52,7.11,2.52a34.46,34.46,0,0,0,6.8-.93v11.53a41.86,41.86,0,0,1-11,1.54q-9.59,0-14.46-5.8T180,191.14V139.28H164.72V128.22H180V108Z"/><path d="M261.27,213.41q-17,0-27.67-11.17t-10.67-29.88v-2.63a50.32,50.32,0,0,1,4.75-22.22A37.17,37.17,0,0,1,241,132.2a33.46,33.46,0,0,1,18.51-5.52q16.32,0,25.36,10.74t9,30.77v5.95H237.23q.32,12.36,7.23,20A22.69,22.69,0,0,0,262,201.73a25,25,0,0,0,12.84-3.09,32.14,32.14,0,0,0,9.19-8.19l8.74,6.8Q282.3,213.41,261.27,213.41Zm-1.78-75a19.08,19.08,0,0,0-14.53,6.3q-5.88,6.3-7.26,17.66h41.89v-1.08q-.61-10.91-5.87-16.89T259.49,138.43Z"/><path d="M326,211.86h-14.3V93.13H326Z"/><path d="M364.39,211.86h-14.3V93.13h14.3Z"/><path d="M387.35,106a8.53,8.53,0,0,1,2.12-5.88q2.13-2.39,6.3-2.39a8.13,8.13,0,0,1,6.34,2.39,8.47,8.47,0,0,1,2.16,5.88,8.15,8.15,0,0,1-2.16,5.79c-1.44,1.55-3.56,2.32-6.34,2.32s-4.88-.77-6.3-2.32A8.21,8.21,0,0,1,387.35,106Zm15.46,105.82h-14.3V128.22h14.3Z"/><path d="M422.28,169.34q0-19.54,9.05-31.11t24-11.55q15.31,0,23.89,10.82l.69-9.28h13.07v81.63q0,16.23-9.63,25.59t-25.85,9.35a43,43,0,0,1-17.71-3.87,30.36,30.36,0,0,1-13.21-10.59l7.42-8.58q9.19,11.37,22.49,11.37,10.44,0,16.27-5.88t5.84-16.54v-7.19q-8.58,9.9-23.42,9.9-14.68,0-23.77-11.83T422.28,169.34ZM436.66,171q0,14.15,5.8,22.22t16.23,8.08q13.53,0,19.87-12.29V150.79q-6.57-12-19.71-12-10.44,0-16.31,8.12T436.66,171Z"/><path d="M549.21,213.41q-17,0-27.67-11.17t-10.67-29.88v-2.63a50.19,50.19,0,0,1,4.75-22.22,37.1,37.1,0,0,1,13.3-15.31,33.43,33.43,0,0,1,18.51-5.52q16.3,0,25.36,10.74t9,30.77v5.95H525.17q.32,12.36,7.23,20A22.69,22.69,0,0,0,550,201.73a24.9,24.9,0,0,0,12.83-3.09,32,32,0,0,0,9.2-8.19l8.74,6.8Q570.24,213.41,549.21,213.41Zm-1.78-75a19.08,19.08,0,0,0-14.53,6.3q-5.88,6.3-7.27,17.66h41.9v-1.08q-.62-10.91-5.87-16.89T547.43,138.43Z"/><path d="M611.9,128.22l.46,10.51a30.5,30.5,0,0,1,25-12q26.51,0,26.74,29.91v55.27h-14.3V156.51q-.08-9-4.13-13.37t-12.64-4.33a20.64,20.64,0,0,0-12.21,3.71,25.22,25.22,0,0,0-8.2,9.74v59.6h-14.3V128.22Z"/><path d="M705.12,108v20.25h15.62v11.06H705.12v51.93c0,3.35.7,5.87,2.09,7.54s3.76,2.52,7.11,2.52a34.46,34.46,0,0,0,6.8-.93v11.53a41.86,41.86,0,0,1-11,1.54q-9.58,0-14.46-5.8t-4.87-16.47V139.28H675.59V128.22h15.23V108Z"/><path d="M753,211.86h-14.3V93.13H753Z"/><path d="M803.22,190.91l19.47-62.69H838l-33.63,96.55q-7.8,20.86-24.81,20.87l-2.7-.23-5.34-1V232.81l3.87.31q7.26,0,11.32-2.94t6.69-10.75l3.17-8.5-29.84-82.71h15.61Z"/><path class="cls-1" d="M843.17,42.31a44,44,0,0,1,5.29-21.24A39.6,39.6,0,0,1,863.13,5.64a39.12,39.12,0,0,1,40.47,0,39.67,39.67,0,0,1,14.64,15.43,44,44,0,0,1,5.3,21.24,44.39,44.39,0,0,1-5.1,20.9A40.28,40.28,0,0,1,904,78.87a38.83,38.83,0,0,1-41.12.06,40.39,40.39,0,0,1-14.53-15.61A44.16,44.16,0,0,1,843.17,42.31Zm6.51,0a37,37,0,0,0,4.53,18,33.72,33.72,0,0,0,12.32,13,32.51,32.51,0,0,0,33.79-.09,33.82,33.82,0,0,0,12.26-13A37.1,37.1,0,0,0,917,42.28a36.81,36.81,0,0,0-4.45-17.85,33.46,33.46,0,0,0-12.26-12.91,32.8,32.8,0,0,0-33.82,0A33.34,33.34,0,0,0,854.18,24.4,36.8,36.8,0,0,0,849.68,42.28Zm25.38,4.28V65.7h-8V17.62H882.7q8.67,0,13.45,3.71t4.79,10.79q0,7-7.25,10.64,6.91,2.84,7,11.56v3.45q0,4.88,1,7v.9h-8.21c-.53-1.36-.8-3.78-.8-7.28a57.25,57.25,0,0,0-.17-6.2q-.9-5.43-7.42-5.66Zm0-7.25h8.83a11.29,11.29,0,0,0,6.57-2A5.83,5.83,0,0,0,893,32.42c0-2.74-.73-4.69-2.2-5.83s-4.1-1.72-7.88-1.72h-7.81Z"/></g></g></svg>