<?xml version="1.0" encoding="utf-8"?>
<!-- Generator: Adobe Illustrator 22.0.1, SVG Export Plug-In . SVG Version: 6.00 Build 0)  -->
<svg version="1.1" id="Layer_1" xmlns="http://www.w3.org/2000/svg" xmlns:xlink="http://www.w3.org/1999/xlink" x="0px" y="0px"
	 viewBox="0 0 313.9 283.5" style="enable-background:new 0 0 313.9 283.5;" xml:space="preserve">
<style type="text/css">
	.st0{fill:#14A9E1;}
	.st1{fill:#FFFFFF;}
</style>
<title>icon-</title>
<g>
	<g id="Layer_2_1_">
		<g id="Layer_1-2">
			<path class="st0" d="M38.4,0h206.7c21.2,0,38.4,17.2,38.4,38.4v206.7c0,21.2-17.2,38.4-38.4,38.4H38.4
				C17.2,283.5,0,266.3,0,245.1V38.4C0,17.2,17.2,0,38.4,0z"/>
			<g id="Layer_1-2-2">
				<path class="st1" d="M215.5,249.4H68c-18.7,0-33.9-15.2-33.9-33.9V68c0-18.7,15.2-33.9,33.9-33.9h147.5
					c18.7,0,33.9,15.2,33.9,33.9v67.2c0,5.9-4.8,10.6-10.6,10.6c0,0,0,0,0,0h-23.6c-5.9-0.1-10.5-4.9-10.5-10.8v-16.6
					c-0.1-1.6-0.6-3.1-1.4-4.5c-0.9-1.5-2.8-3.5-8.1-3.5s-7,2.1-8,3.8c-0.7,1.3-1.1,2.8-1.2,4.3v19.3c0.2,4.4-3.3,8-7.6,8.2
					c-4.4,0.2-8-3.3-8.2-7.6c0-0.2,0-0.4,0-0.6v-19.3c0-9.6,6.7-24,25.1-24c18.6,0,25.3,14.2,25.3,23.7v11.5l13.2,0.1V68
					c0-10-8.1-18.1-18-18.1H68C58,49.9,49.9,58,49.9,68v147.5c0,10,8.1,18.1,18.1,18.1h147.5c10,0,18-8.1,18.1-18.1V178h-55.1
					c-12,18.6-32.6,28.8-58.3,28.8c-29.6,0-59.5-22.7-59.5-66c0-18.4,5-33.7,14.4-44.3c9.7-10.9,24-16.7,41.2-16.7
					c19,0,30.5,9.8,36.7,17.9c8,10.4,10.8,22.6,10.8,30.5c0,12.8-6.8,17.4-12.6,17.4H76.6c1.7,22.6,15.4,45.3,43.5,45.3
					c26.5,0,39.5-12.4,45.8-22.7c2.4-4,6.7-6.1,12.8-6.1h59.1c6.5,0,11.7,5.2,11.7,11.7c0,0,0,0,0,0v41.7
					C249.3,234.2,234.2,249.3,215.5,249.4z M77.2,129.8h70.7c0.3-3.9-0.9-12-5.7-19.7c-4.1-6.6-12-14.4-26.1-14.4
					c-12.8,0-22.6,3.8-29.3,11.4C81.8,112.6,78.5,120.3,77.2,129.8z"/>
			</g>
		</g>
	</g>
	<g>
		<path class="st0" d="M286.9,17.1c0-2.2,0.5-4.3,1.5-6.2c1-1.9,2.5-3.4,4.3-4.5c1.8-1.1,3.8-1.6,5.9-1.6s4.1,0.5,5.9,1.6
			c1.8,1.1,3.2,2.6,4.3,4.5c1,1.9,1.5,4,1.5,6.2c0,2.2-0.5,4.2-1.5,6.1c-1,1.9-2.4,3.4-4.2,4.6c-1.8,1.2-3.8,1.7-6,1.7
			c-2.2,0-4.2-0.6-6-1.7c-1.8-1.1-3.2-2.7-4.2-4.6C287.4,21.4,286.9,19.3,286.9,17.1z M288.8,17.1c0,1.9,0.4,3.6,1.3,5.3
			s2.1,2.9,3.6,3.8c1.5,0.9,3.2,1.4,4.9,1.4c1.8,0,3.4-0.5,4.9-1.4c1.5-0.9,2.7-2.2,3.6-3.8s1.3-3.3,1.3-5.2c0-1.9-0.4-3.6-1.3-5.2
			s-2.1-2.8-3.6-3.8c-1.5-0.9-3.2-1.4-4.9-1.4c-1.8,0-3.4,0.5-4.9,1.4c-1.5,0.9-2.7,2.2-3.6,3.8S288.8,15.3,288.8,17.1z M296.2,18.4
			V24h-2.3v-14h4.6c1.7,0,3,0.4,3.9,1.1c0.9,0.7,1.4,1.8,1.4,3.1c0,1.4-0.7,2.4-2.1,3.1c1.3,0.6,2,1.7,2,3.4v1
			c0,0.9,0.1,1.6,0.3,2.1V24h-2.4c-0.2-0.4-0.2-1.1-0.2-2.1s0-1.6,0-1.8c-0.2-1.1-0.9-1.6-2.2-1.7H296.2z M296.2,16.3h2.6
			c0.8,0,1.4-0.2,1.9-0.6c0.5-0.4,0.7-0.8,0.7-1.4c0-0.8-0.2-1.4-0.6-1.7c-0.4-0.3-1.2-0.5-2.3-0.5h-2.3V16.3z"/>
	</g>
</g>
</svg>
