<svg xmlns="http://www.w3.org/2000/svg" viewBox="0 0 283.46 283.46"><defs><style>.cls-1{fill:#14a9e1;}.cls-2{fill:#fff;}</style></defs><title>icon-</title><g id="Layer_2" data-name="Layer 2"><g id="Layer_1-2" data-name="Layer 1"><rect class="cls-1" width="283.46" height="283.46" rx="38.38" ry="38.38"/><g id="Layer_1-2-2" data-name="Layer 1-2"><path class="cls-2" d="M215.48,249.36H68a33.93,33.93,0,0,1-33.89-33.89V68A33.93,33.93,0,0,1,68,34.1H215.48A33.93,33.93,0,0,1,249.36,68v67.23a10.63,10.63,0,0,1-10.63,10.63H215.08a10.8,10.8,0,0,1-10.54-10.79V118.48a10.38,10.38,0,0,0-1.38-4.5c-.92-1.52-2.76-3.49-8.1-3.49s-7,2.05-8,3.8a11.39,11.39,0,0,0-1.21,4.3v19.3a7.92,7.92,0,1,1-15.83,0V118.64c0-9.64,6.67-24,25.06-24,18.57,0,25.3,14.19,25.3,23.72v11.48l13.17.1V68A18.08,18.08,0,0,0,215.5,49.92H68A18.08,18.08,0,0,0,49.93,68V215.48A18.08,18.08,0,0,0,68,233.54H215.48a18.08,18.08,0,0,0,18.06-18.06V178H178.39c-12,18.58-32.62,28.78-58.33,28.78-29.57,0-59.5-22.67-59.5-66,0-18.38,5-33.69,14.39-44.27,9.72-10.92,24-16.71,41.18-16.71,19,0,30.47,9.75,36.74,17.93,8,10.43,10.84,22.6,10.84,30.51,0,12.81-6.83,17.35-12.64,17.35H76.56C78.27,168.23,92,190.9,120.06,190.9c26.51,0,39.49-12.36,45.78-22.73,2.42-4,6.74-6.08,12.82-6.08h59.05a11.68,11.68,0,0,1,11.66,11.7v41.71A33.93,33.93,0,0,1,215.48,249.36Zm-38-71.32ZM77.15,129.78h70.69c.33-3.87-.85-12-5.67-19.69-4.14-6.59-12-14.43-26.06-14.43-12.75,0-22.62,3.8-29.35,11.39C81.8,112.59,78.54,120.34,77.15,129.78Z"/></g></g></g></svg>