<svg xmlns="http://www.w3.org/2000/svg" viewBox="0 0 283.46 283.46"><defs><style>.cls-1{fill:#14a9e1;}</style></defs><title>icon-</title><g id="Layer_2" data-name="Layer 2"><g id="Layer_1-2" data-name="Layer 1"><path class="cls-1" d="M238.84,283.46H44.62A44.68,44.68,0,0,1,0,238.84V44.63A44.68,44.68,0,0,1,44.63,0H238.84a44.68,44.68,0,0,1,44.62,44.62v88.53a14,14,0,0,1-14.08,14H238.31a14.22,14.22,0,0,1-13.88-14.21V111.12a13.67,13.67,0,0,0-1.82-5.92c-1.21-2-3.63-4.59-10.66-4.59s-9.27,2.7-10.52,5a15,15,0,0,0-1.59,5.66v25.41a10.42,10.42,0,1,1-20.85,0V111.33c0-12.69,8.78-31.56,33-31.56,24.45,0,33.32,18.68,33.32,31.23v15.11l17.34.13V44.62a23.81,23.81,0,0,0-23.78-23.78H44.63A23.81,23.81,0,0,0,20.85,44.63V238.84a23.81,23.81,0,0,0,23.78,23.78H238.84a23.81,23.81,0,0,0,23.78-23.78V189.45H190c-15.78,24.46-42.95,37.89-76.81,37.89-38.94,0-78.35-29.85-78.35-86.9,0-24.2,6.55-44.36,18.95-58.29,12.8-14.38,31.55-22,54.22-22,25,0,40.12,12.84,48.38,23.61,10.53,13.74,14.28,29.76,14.28,40.17,0,16.87-9,22.85-16.65,22.85H55.92c2.25,29.85,20.38,59.7,57.27,59.7,34.91,0,52-16.28,60.28-29.93,3.19-5.29,8.87-8,16.88-8h77.76A15.38,15.38,0,0,1,283.46,184v54.88A44.68,44.68,0,0,1,238.84,283.46Zm-50.09-93.91h0Zm0,0ZM56.69,126h93.08c.44-5.1-1.12-15.84-7.46-25.93-5.45-8.68-15.82-19-34.31-19-16.79,0-29.79,5-38.65,15C62.81,103.36,58.52,113.56,56.69,126Z"/></g></g></svg>